<?xml version="1.0" encoding="iso-8859-1"?>
<!-- Generator: Adobe Illustrator 19.0.0, SVG Export Plug-In . SVG Version: 6.00 Build 0)  -->
<svg version="1.1" id="Layer_1" xmlns="http://www.w3.org/2000/svg" xmlns:xlink="http://www.w3.org/1999/xlink" x="0px" y="0px"
	 viewBox="0 0 511.974 511.974" style="enable-background:new 0 0 511.974 511.974;" xml:space="preserve">
<path style="fill:#FC6E51;" d="M491.85,156.343c-12.891-30.482-31.342-57.856-54.842-81.363
	c-23.514-23.506-50.902-41.958-81.37-54.857C324.077,6.773,290.548,0,255.987,0c-34.553,0-68.082,6.773-99.643,20.124
	C125.861,33.022,98.48,51.475,74.973,74.981c-23.499,23.506-41.959,50.88-54.849,81.363c-13.35,31.567-20.123,65.089-20.123,99.643
	c0,34.561,6.773,68.09,20.124,99.65c12.89,30.482,31.35,57.856,54.849,81.371c23.506,23.498,50.888,41.951,81.371,54.841
	c31.56,13.358,65.089,20.124,99.642,20.124c34.561,0,68.09-6.766,99.651-20.124c30.468-12.89,57.856-31.343,81.37-54.841
	c23.5-23.515,41.951-50.889,54.842-81.371c13.343-31.561,20.123-65.09,20.123-99.65C511.973,221.434,505.193,187.911,491.85,156.343
	z"/>
<path style="fill:#E9573F;" d="M368.919,340.076c28.826-6.343,56.419-15.187,82.027-26.312
	c29.654-12.874,49.653-25.748,59.84-32.998c0.781-8.187,1.188-16.437,1.188-24.756c-2.5-0.047-5.03,0.757-7.093,2.492
	c-0.219,0.18-21.968,18.264-63.356,36.107c-21.389,9.218-50.638,19.42-87.042,26.623c6.296-37.248,23.765-64.293,43.372-94.628
	c21.906-33.889,46.561-72.098,57.873-130.72c-5.094-6.335-10.5-12.452-16.219-18.327c-1.656,1.547-2.844,3.633-3.234,6.047
	c-9.733,59.286-33.42,95.956-56.34,131.415c-21.375,33.076-41.732,64.59-47.607,110.025c-20.077,3.016-41.998,5.031-65.676,5.5
	V0.226C263.112,0.078,259.557,0,255.987,0c-3.57,0-7.125,0.078-10.663,0.227v330.319c-23.89-0.484-45.998-2.516-66.231-5.562
	c-5.844-45.42-26.084-76.934-47.333-109.994c-22.78-35.451-46.341-72.113-56.06-131.384c-0.398-2.414-1.578-4.5-3.242-6.047
	C66.74,83.434,61.333,89.551,56.24,95.886c11.289,58.575,35.811,96.769,57.575,130.642c19.491,30.327,36.85,57.38,43.13,94.581
	c-36.162-7.188-65.239-17.343-86.535-26.498c-41.396-17.844-63.168-35.928-63.387-36.107c-2.039-1.727-4.546-2.539-7.023-2.5
	c0,8.335,0.398,16.608,1.18,24.795c10.21,7.281,30.217,20.124,59.825,32.967c25.608,11.125,53.208,19.969,82.051,26.312
	c5.351,1.172,10.757,2.25,16.194,3.25c0.125,2.844,0.195,5.719,0.195,8.655c-0.008,24.093-12.468,45.701-37.037,64.247
	c-19.312,14.593-39.076,21.624-39.256,21.687c-1.719,0.594-3.188,1.594-4.335,2.844c5.507,5.281,11.226,10.28,17.132,15.03
	c8.054-3.375,23.389-10.593,38.826-22.155c30.084-22.561,45.998-50.778,45.998-81.652c0.008-1.75-0.023-3.468-0.062-5.171
	c21.069,2.952,42.669,4.64,64.614,5.062v159.883c3.537,0.153,7.092,0.215,10.662,0.215c3.57,0,7.125-0.062,10.664-0.219V351.871
	c21.756-0.406,43.178-2.078,64.051-4.983c-0.031,1.688-0.062,3.374-0.062,5.093c0.016,30.874,16.031,59.123,46.311,81.668
	c15.53,11.547,30.967,18.765,39.061,22.14c5.906-4.734,11.624-9.749,17.154-15.03c-1.155-1.25-2.624-2.25-4.343-2.844
	c-0.203-0.078-20.108-7.109-39.561-21.702c-24.733-18.546-37.279-40.17-37.279-64.231c0-2.905,0.062-5.749,0.188-8.562
	C357.795,342.388,363.387,341.294,368.919,340.076z"/>
<path style="opacity:0.2;fill:#FFFFFF;enable-background:new    ;" d="M491.85,156.343c-12.891-30.482-31.342-57.856-54.842-81.363
	c-23.514-23.506-50.902-41.958-81.37-54.857C324.077,6.773,290.548,0,255.987,0c-3.57,0-7.125,0.078-10.663,0.227
	c30.787,1.25,60.661,7.929,88.972,19.897c30.498,12.898,57.872,31.351,81.371,54.857c23.498,23.506,41.967,50.88,54.855,81.363
	c13.359,31.568,20.109,65.09,20.109,99.644c0,34.561-6.75,68.09-20.109,99.65c-12.889,30.482-31.357,57.856-54.855,81.371
	c-23.499,23.498-50.873,41.951-81.371,54.841c-28.311,11.983-58.185,18.655-88.972,19.905c3.538,0.156,7.093,0.218,10.663,0.218
	c34.561,0,68.09-6.766,99.651-20.124c30.468-12.89,57.856-31.343,81.37-54.841c23.5-23.515,41.951-50.889,54.842-81.371
	c13.343-31.561,20.123-65.09,20.123-99.65C511.973,221.434,505.193,187.911,491.85,156.343z"/>
<g>
</g>
<g>
</g>
<g>
</g>
<g>
</g>
<g>
</g>
<g>
</g>
<g>
</g>
<g>
</g>
<g>
</g>
<g>
</g>
<g>
</g>
<g>
</g>
<g>
</g>
<g>
</g>
<g>
</g>
</svg>
