<?xml version="1.0" encoding="iso-8859-1"?>
<!-- Generator: Adobe Illustrator 19.0.0, SVG Export Plug-In . SVG Version: 6.00 Build 0)  -->
<svg version="1.1" id="Layer_1" xmlns="http://www.w3.org/2000/svg" xmlns:xlink="http://www.w3.org/1999/xlink" x="0px" y="0px"
	 viewBox="0 0 512.001 512.001" style="enable-background:new 0 0 512.001 512.001;" xml:space="preserve">
<polygon style="fill:#434A54;" points="175.26,351.808 160.175,336.715 272.014,224.885 287.105,239.971 "/>
<path style="fill:#E6E9ED;" d="M507.797,109.946L492.721,94.86l-9.438,9.438l-15.077-15.085L498.36,59.05l-15.077-15.085
	l-30.17,30.163L438.035,59.05l30.171-30.17l-15.093-15.085l-30.17,30.17L407.865,28.88l9.438-9.438L402.209,4.357l-9.437,9.438
	l-6.733-6.742l-15.094,15.085l6.75,6.742l-15.094,15.085L343.54,24.896l-15.078,15.085l19.062,19.069l-15.078,15.078L310.62,52.309
	l-15.094,15.085l21.827,21.819l-15.077,15.085l-18.905-18.897l-15.085,15.085l18.896,18.897l-15.076,15.085l-6.75-6.741
	l-15.078,15.085l6.734,6.741l-10.646,10.648l15.085,15.085l10.656-10.647l15.076,15.085l-30.17,30.162l15.094,15.085l30.17-30.17
	l15.077,15.085l-30.171,30.171l15.094,15.085l30.17-30.171l15.078,15.086l-10.484,10.483l15.093,15.077l10.468-10.476l6.578,6.569
	l15.078-15.085l-6.562-6.569l15.077-15.086l18.905,18.897l15.077-15.085l-18.89-18.897l15.078-15.085l21.826,21.827l15.078-15.085
	l-21.812-21.819l15.078-15.085l18.904,18.897l15.078-15.086l-18.905-18.897l15.093-15.085l6.562,6.57l15.093-15.085l-6.578-6.57
	L507.797,109.946z M438.035,89.213l-15.092,15.085l-15.078-15.085l15.078-15.085L438.035,89.213z M377.695,119.383l15.077-15.085
	l15.093,15.085l-15.093,15.085L377.695,119.383z M377.695,149.553l-15.094,15.086l-15.076-15.086l15.076-15.085L377.695,149.553z
	 M392.772,43.965l15.093,15.085l-15.093,15.078L377.695,59.05L392.772,43.965z M362.602,74.128l15.094,15.085l-15.078,15.085
	l-15.092-15.085L362.602,74.128z M332.447,104.298l15.078,15.085l-15.078,15.085l-15.093-15.085L332.447,104.298z M287.184,149.553
	l15.094-15.085l15.077,15.085l-15.077,15.086L287.184,149.553z M317.354,179.724l15.093-15.085l15.078,15.085l-15.078,15.077
	L317.354,179.724z M362.602,224.971l-15.076-15.085l15.076-15.085l15.094,15.085L362.602,224.971z M392.772,194.801l-15.077-15.077
	l15.077-15.085l15.093,15.085L392.772,194.801z M422.943,164.639l-15.078-15.086l15.078-15.085l15.092,15.085L422.943,164.639z
	 M453.113,134.468l-15.078-15.085l15.078-15.085l15.077,15.085L453.113,134.468z"/>
<path style="fill:#ED5564;" d="M345.791,268.75c-29.437,0-54.951-9.952-73.777-28.779c-22.539-22.538-32.358-54.849-27.647-90.972
	c4.578-35.077,22.429-69.739,50.271-97.581c32.686-32.67,74.512-51.403,114.791-51.403c29.436-0.008,54.935,9.952,73.762,28.779
	c22.546,22.538,32.373,54.849,27.654,90.972c-4.577,35.084-22.436,69.738-50.277,97.581
	C427.896,250.017,386.07,268.758,345.791,268.75z M409.428,21.341c-16.468,0-34.061,3.93-50.889,11.359
	c-17.842,7.882-34.264,19.257-48.809,33.803c-49.912,49.903-60.06,120.954-22.625,158.382
	c14.734,14.742,35.029,22.538,58.686,22.538c16.451,0,34.045-3.93,50.871-11.358c17.844-7.883,34.28-19.257,48.826-33.803
	c49.904-49.904,60.06-120.955,22.624-158.383C453.363,29.138,433.082,21.341,409.428,21.341z"/>
<path style="fill:#FFD2A6;" d="M175.26,336.715c-2-1.999-4.71-3.124-7.539-3.124h-30.17c-2.828,0-5.539,1.125-7.539,3.124
	L3.129,463.614c-4.172,4.156-4.172,10.906,0,15.078l30.162,30.17c2,2,4.719,3.125,7.547,3.125s5.539-1.125,7.539-3.125
	L175.26,381.979c2-2,3.125-4.719,3.125-7.546v-30.155C178.385,341.434,177.26,338.715,175.26,336.715z"/>
<path style="fill:#ED5564;" d="M178.385,344.277c0-2.844-1.125-5.562-3.125-7.562c-2-1.999-4.71-3.124-7.539-3.124h-30.17
	c-2.828,0-5.539,1.125-7.539,3.124l45.248,45.264c2-2,3.125-4.719,3.125-7.546V344.277z"/>
<path style="fill:#FFCE54;" d="M456.816,396.493l-7.547-7.547c-4.156-4.172-10.906-4.172-15.078,0l-45.247,45.248
	c-4.171,4.172-4.171,10.922,0,15.078l7.53,7.562l0,0c16.641,16.624,43.701,16.624,60.342,0
	C473.455,440.179,473.455,413.117,456.816,396.493z"/>
<path style="fill:#E6E9ED;" d="M450.879,390.993l-45.248-75.418c-1.688-2.812-4.578-4.702-7.844-5.093
	c-3.265-0.406-6.53,0.719-8.843,3.046l-75.434,75.418c-2.312,2.328-3.437,5.578-3.03,8.844c0.281,2.391,1.374,4.578,3.046,6.234
	c0.609,0.625,1.297,1.156,2.047,1.609l75.418,45.263L450.879,390.993z"/>
<path style="fill:#CCD1D9;" d="M428.474,413.398l-39.529-39.528c-4.171-4.172-10.921-4.172-15.093,0
	c-4.156,4.155-4.156,10.904,0,15.076l39.545,39.545L428.474,413.398z"/>
<g>
</g>
<g>
</g>
<g>
</g>
<g>
</g>
<g>
</g>
<g>
</g>
<g>
</g>
<g>
</g>
<g>
</g>
<g>
</g>
<g>
</g>
<g>
</g>
<g>
</g>
<g>
</g>
<g>
</g>
</svg>
